<svg width="162" height="150" viewBox="0 0 162 150" fill="none" xmlns="http://www.w3.org/2000/svg">
<g clip-path="url(#clip0_1_1664)">
<path d="M75.9061 73.75C93.165 73.75 107.156 59.7589 107.156 42.5C107.156 25.2411 93.165 11.25 75.9061 11.25C58.6472 11.25 44.6561 25.2411 44.6561 42.5C44.6561 59.7589 58.6472 73.75 75.9061 73.75Z" stroke="black" stroke-width="2" stroke-linecap="round" stroke-linejoin="round"/>
<path d="M88.4061 55C88.4061 55 83.7186 48.75 75.9061 48.75C68.0936 48.75 63.4061 55 63.4061 55" stroke="black" stroke-width="2" stroke-linecap="round" stroke-linejoin="round"/>
<path d="M66.5311 33.125H66.5629" stroke="black" stroke-width="2" stroke-linecap="round" stroke-linejoin="round"/>
<path d="M85.2811 33.125H85.3123" stroke="black" stroke-width="2" stroke-linecap="round" stroke-linejoin="round"/>
<path d="M112.906 138.75C130.165 138.75 144.156 124.759 144.156 107.5C144.156 90.2411 130.165 76.25 112.906 76.25C95.6472 76.25 81.6561 90.2411 81.6561 107.5C81.6561 124.759 95.6472 138.75 112.906 138.75Z" stroke="black" stroke-width="2" stroke-linecap="round" stroke-linejoin="round"/>
<path d="M100.406 116.875H125.406" stroke="black" stroke-width="2" stroke-linecap="round" stroke-linejoin="round"/>
<path d="M103.531 98.125H103.564" stroke="black" stroke-width="2" stroke-linecap="round" stroke-linejoin="round"/>
<path d="M122.281 98.125H122.313" stroke="black" stroke-width="2" stroke-linecap="round" stroke-linejoin="round"/>
<path d="M37.9061 138.75C55.165 138.75 69.1561 124.759 69.1561 107.5C69.1561 90.2411 55.165 76.25 37.9061 76.25C20.6472 76.25 6.65613 90.2411 6.65613 107.5C6.65613 124.759 20.6472 138.75 37.9061 138.75Z" fill="#FFD400"/>
<path d="M25.4061 113.75C25.4061 113.75 30.0936 120 37.9061 120C45.7186 120 50.4061 113.75 50.4061 113.75" stroke="black" stroke-width="2" stroke-linecap="round" stroke-linejoin="round"/>
<path d="M28.5311 98.125H28.5638" stroke="black" stroke-width="2" stroke-linecap="round" stroke-linejoin="round"/>
<path d="M47.2811 98.125H47.3131" stroke="black" stroke-width="2" stroke-linecap="round" stroke-linejoin="round"/>
</g>
<defs>
<clipPath id="clip0_1_1664">
<rect width="161.263" height="150" fill="white" transform="translate(0.406128)"/>
</clipPath>
</defs>
</svg>
