<svg width="132" height="150" viewBox="0 0 132 150" fill="none" xmlns="http://www.w3.org/2000/svg">
<g clip-path="url(#clip0_1_1423)">
<rect x="89.6947" y="28.2997" width="52.2799" height="91" rx="13" transform="rotate(21.7864 89.6947 28.2997)" stroke="black" stroke-width="2"/>
<rect x="74.8036" y="111.917" width="18.2447" height="2.08652" rx="1.04326" transform="rotate(21.7864 74.8036 111.917)" fill="black"/>
<rect x="22.6205" y="25" width="56" height="93" rx="14" fill="#FFD400"/>
<path d="M50.6205 88.0853C51.2227 88.0853 51.711 87.6458 51.8087 86.9948C53.2084 76.1549 54.7383 74.6087 65.334 73.4368C66.0014 73.3717 66.4734 72.8835 66.4734 72.2487C66.4734 71.6139 66.0014 71.1257 65.334 71.0443C54.7383 69.8887 53.2084 68.3424 51.8087 57.4863C51.711 56.8353 51.2227 56.4121 50.6205 56.4121C50.0183 56.4121 49.53 56.8353 49.4323 57.4863C48.0326 68.3424 46.5027 69.8887 35.907 71.0443C35.2396 71.1257 34.7676 71.6139 34.7676 72.2487C34.7676 72.8835 35.2396 73.3717 35.907 73.4368C46.5027 74.8366 47.935 76.1712 49.4323 86.9948C49.53 87.6458 50.0183 88.0853 50.6205 88.0853Z" fill="#231F20"/>
<rect x="41.6205" y="110" width="18" height="2" rx="1" fill="#231F20"/>
</g>
<defs>
<clipPath id="clip0_1_1423">
<rect width="130.886" height="150" fill="white" transform="translate(0.620499)"/>
</clipPath>
</defs>
</svg>
